<svg xmlns="http://www.w3.org/2000/svg" xmlns:xlink="http://www.w3.org/1999/xlink" width="6912" zoomAndPan="magnify" viewBox="0 0 5184 2592.000001" height="3456" preserveAspectRatio="xMidYMid meet" version="1.0"><defs><clipPath id="21dd722c9e"><path d="M 1489 242.570312 L 3570 242.570312 L 3570 2332.015625 L 1489 2332.015625 Z M 1489 242.570312 " clip-rule="nonzero"/></clipPath></defs><g clip-path="url(#21dd722c9e)"><path fill="#cae8ff" d="M 3569.90625 1206.902344 C 3569.960938 1206.136719 3569.808594 1205.40625 3569.570312 1204.71875 C 3569.558594 1204.675781 3569.578125 1204.632812 3569.558594 1204.589844 L 3362.109375 659.738281 C 3362.078125 659.660156 3362 659.628906 3361.96875 659.554688 C 3361.617188 658.746094 3361.148438 657.980469 3360.417969 657.414062 L 2904.203125 294.460938 C 2903.492188 293.882812 2902.621094 293.46875 2901.671875 293.304688 C 2901.597656 293.292969 2901.53125 293.28125 2901.464844 293.28125 L 2529.085938 242.625 C 2528.355469 242.539062 2527.578125 242.59375 2526.859375 242.789062 L 2349.378906 293.226562 L 2344.328125 293.226562 C 2343.316406 293.226562 2342.355469 293.511719 2341.523438 294.011719 C 2341.515625 294.011719 2341.515625 294.011719 2341.503906 294.011719 L 2336.988281 296.742188 L 1900.148438 420.921875 C 1900.007812 420.964844 1899.917969 421.085938 1899.789062 421.128906 C 1899.199219 421.347656 1898.675781 421.652344 1898.183594 422.066406 C 1897.988281 422.230469 1897.792969 422.375 1897.617188 422.558594 C 1897.519531 422.667969 1897.398438 422.710938 1897.3125 422.832031 L 1514.761719 919.503906 C 1514.644531 919.65625 1514.621094 919.828125 1514.523438 919.992188 C 1514.382812 920.210938 1514.21875 920.40625 1514.121094 920.648438 C 1514.054688 920.800781 1514.03125 920.964844 1513.976562 921.117188 C 1513.878906 921.410156 1513.824219 921.707031 1513.78125 922.011719 C 1513.75 922.195312 1513.660156 922.351562 1513.648438 922.535156 L 1489.558594 1359.339844 C 1489.539062 1359.722656 1489.558594 1360.117188 1489.613281 1360.496094 L 1524.886719 1581.410156 C 1524.929688 1581.703125 1525.085938 1581.945312 1525.171875 1582.226562 C 1525.226562 1582.414062 1525.214844 1582.609375 1525.292969 1582.785156 C 1525.3125 1582.828125 1525.355469 1582.859375 1525.378906 1582.914062 C 1525.402344 1582.96875 1525.402344 1583.035156 1525.433594 1583.089844 L 1703.535156 1922.367188 C 1703.839844 1922.957031 1704.253906 1923.480469 1704.753906 1923.929688 L 1913.644531 2108.628906 C 1913.984375 2109.011719 1914.351562 2109.339844 1914.769531 2109.609375 L 2156.324219 2272.4375 C 2156.988281 2272.882812 2157.742188 2273.167969 2158.539062 2273.296875 L 2537.507812 2332.234375 L 2537.5625 2332.246094 C 2537.5625 2332.246094 2537.574219 2332.246094 2537.574219 2332.246094 C 2537.605469 2332.246094 2537.605469 2332.257812 2537.636719 2332.257812 C 2537.921875 2332.300781 2538.195312 2332.324219 2538.476562 2332.324219 C 2538.476562 2332.324219 2538.476562 2332.324219 2538.488281 2332.324219 C 2538.859375 2332.324219 2539.242188 2332.28125 2539.601562 2332.203125 C 2539.601562 2332.203125 2539.613281 2332.203125 2539.625 2332.191406 C 2539.636719 2332.191406 2539.644531 2332.191406 2539.644531 2332.191406 C 2539.65625 2332.191406 2539.65625 2332.191406 2539.667969 2332.179688 C 2539.667969 2332.179688 2539.679688 2332.179688 2539.6875 2332.179688 C 2539.710938 2332.171875 2539.742188 2332.171875 2539.777344 2332.160156 C 2539.777344 2332.160156 2539.777344 2332.160156 2539.789062 2332.160156 C 2539.796875 2332.171875 2539.820312 2332.148438 2539.808594 2332.148438 C 2539.808594 2332.148438 2539.820312 2332.148438 2539.820312 2332.148438 L 2539.84375 2332.136719 C 2539.84375 2332.136719 2539.851562 2332.136719 2539.851562 2332.136719 C 2539.863281 2332.136719 2539.863281 2332.125 2539.875 2332.125 C 2539.875 2332.125 2539.886719 2332.125 2539.898438 2332.125 C 2539.898438 2332.136719 2539.90625 2332.117188 2539.917969 2332.117188 C 2539.941406 2332.105469 2539.949219 2332.105469 2539.972656 2332.09375 L 3159.242188 2151.089844 C 3159.472656 2151.027344 3159.601562 2150.796875 3159.808594 2150.699219 C 3160.410156 2150.4375 3160.878906 2150.085938 3161.347656 2149.628906 C 3161.554688 2149.433594 3161.871094 2149.378906 3162.046875 2149.148438 L 3538.789062 1652.21875 C 3539.390625 1651.421875 3539.652344 1650.515625 3539.773438 1649.585938 C 3539.785156 1649.480469 3539.882812 1649.402344 3539.894531 1649.292969 Z M 3529.300781 1644.601562 L 3366.351562 1685.800781 L 3556.835938 1238.378906 Z M 2868.121094 1581.214844 L 2267.71875 1369.914062 L 2720.550781 1043.769531 Z M 2720.570312 1026.171875 L 2269.015625 730.753906 L 2856.121094 562.765625 Z M 2714.113281 1034.976562 L 2261.507812 1360.957031 L 2261.507812 738.882812 Z M 2250.597656 1362.84375 L 1736.953125 1110.695312 L 2250.597656 739.472656 Z M 2361.839844 1967.351562 L 1872.195312 1692.933594 L 2252.386719 1381.664062 Z M 2263.15625 1379.886719 L 2864.828125 1591.632812 L 2373.089844 1968.09375 Z M 2871.417969 1600.316406 L 2903.132812 2050.488281 L 2382.917969 1974.289062 Z M 2878.410156 1577.4375 L 2731.109375 1040.976562 L 3232.046875 1091.046875 Z M 3239.03125 1099.992188 L 3350.128906 1686.703125 L 2885.480469 1586.265625 Z M 3359.03125 1675.117188 L 3249.199219 1095.058594 L 3557.195312 1209.664062 Z M 3239.804688 1074.003906 L 2876.742188 563.117188 L 3350.261719 665.816406 Z M 3230.652344 1079.949219 L 2730.828125 1029.992188 L 2866.226562 567.121094 Z M 2263.210938 721.074219 L 2348.257812 306.703125 L 2849.0625 553.4375 Z M 2251.953125 721.664062 L 1867.789062 593.195312 L 2336.472656 309.8125 Z M 2244.25 730.589844 L 1735.292969 1098.421875 L 1858.742188 601.671875 Z M 1723.3125 1101.386719 L 1527.027344 922.699219 L 1844.941406 611.972656 Z M 1850.003906 591.765625 L 1570.710938 864.742188 L 1888.898438 451.644531 Z M 1719.886719 1113.03125 L 1535.273438 1554.417969 L 1524.757812 935.367188 Z M 1724.929688 1129.242188 L 1854.992188 1685.449219 L 1537.542969 1577.261719 Z M 1734.332031 1121.550781 L 2246.027344 1372.75 L 1865.867188 1684.011719 Z M 2355.183594 1976.132812 L 1922.316406 2098.078125 L 1869.414062 1703.890625 Z M 2366.421875 1984.304688 L 2527.730469 2317.234375 L 1935.671875 2105.652344 Z M 2540.519531 2318.585938 L 2378.742188 1984.710938 L 2895.027344 2060.339844 Z M 2913.761719 2046.035156 L 2882.109375 1596.695312 L 3344.761719 1696.710938 Z M 3342.929688 1712.222656 L 3154.792969 2138.992188 L 2920.023438 2055.003906 Z M 3360.941406 1698.421875 L 3520.734375 1658.023438 L 3181.476562 2105.496094 Z M 3248.609375 1083.191406 L 3357.898438 679.324219 L 3555.082031 1197.222656 Z M 2904.792969 308.882812 L 3335.324219 651.402344 L 2870.25 550.535156 Z M 2528.746094 253.589844 L 2820.183594 293.226562 L 2389.28125 293.226562 Z M 2894.460938 304.136719 L 2859.796875 546.578125 L 2367.742188 304.136719 Z M 1863.804688 582.851562 L 1906.082031 430.578125 L 2301.582031 318.15625 Z M 1500.460938 1359.351562 L 1516.191406 1074.15625 L 1523.480469 1503.585938 Z M 1712.71875 1916.398438 L 1568.191406 1641.078125 L 1882.648438 2066.699219 Z M 1545.015625 1591.339844 L 1857.585938 1697.855469 L 1909.519531 2084.703125 Z M 1956.652344 2124.722656 L 2482.410156 2312.609375 L 2161.394531 2262.683594 Z M 2909.929688 2062.980469 L 3140.074219 2145.332031 L 2566.953125 2312.847656 Z M 2909.929688 2062.980469 " fill-opacity="1" fill-rule="nonzero"/></g></svg>